<svg xmlns="http://www.w3.org/2000/svg" viewBox="0 0 250 250"><defs><style>.cls-1,.cls-2,.cls-3,.cls-4,.cls-5,.cls-6,.cls-7{fill:none;stroke:#000;stroke-linecap:round;stroke-linejoin:round;stroke-width:10px;}.cls-2{stroke-dasharray:16.32 16.32;}.cls-3{stroke-dasharray:15.32 15.32;}.cls-4{stroke-dasharray:17.52 17.52;}.cls-5{stroke-dasharray:17.51 17.51;}.cls-6{stroke-dasharray:17.16 17.16;}.cls-7{stroke-dasharray:13.23 13.23;}</style></defs><g id="Final_logotype" data-name="Final logotype"><polyline class="cls-1" points="222.75 217.57 222.75 225.57 214.75 225.57"/><line class="cls-2" x1="198.43" y1="225.57" x2="43.41" y2="225.57"/><polyline class="cls-1" points="35.25 225.57 27.25 225.57 27.25 217.57"/><line class="cls-2" x1="27.25" y1="201.25" x2="27.25" y2="46.22"/><polyline class="cls-1" points="27.25 38.06 27.25 30.06 35.25 30.06"/><line class="cls-2" x1="51.57" y1="30.06" x2="206.59" y2="30.06"/><polyline class="cls-1" points="214.75 30.06 222.75 30.06 222.75 38.06"/><line class="cls-2" x1="222.75" y1="54.38" x2="222.75" y2="209.41"/><line class="cls-1" x1="27.25" y1="225.57" x2="32.91" y2="219.91"/><line class="cls-3" x1="43.74" y1="209.07" x2="211.68" y2="41.14"/><line class="cls-1" x1="217.09" y1="35.72" x2="222.75" y2="30.06"/><line class="cls-1" x1="97.63" y1="225.57" x2="103.29" y2="219.91"/><line class="cls-4" x1="115.68" y1="207.52" x2="208.61" y2="114.59"/><line class="cls-1" x1="214.8" y1="108.39" x2="220.46" y2="102.74"/><line class="cls-1" x1="172.78" y1="225.57" x2="178.44" y2="219.91"/><line class="cls-5" x1="190.83" y1="207.53" x2="209.4" y2="188.95"/><line class="cls-1" x1="215.59" y1="182.76" x2="221.25" y2="177.1"/><line class="cls-1" x1="27.25" y1="150.56" x2="32.91" y2="144.91"/><line class="cls-6" x1="45.04" y1="132.78" x2="136.03" y2="41.78"/><line class="cls-1" x1="142.09" y1="35.72" x2="147.75" y2="30.06"/><line class="cls-1" x1="30.75" y1="88.17" x2="36.4" y2="82.51"/><line class="cls-7" x1="45.76" y1="73.15" x2="78.52" y2="40.4"/><line class="cls-1" x1="83.19" y1="35.72" x2="88.85" y2="30.06"/></g></svg>