<svg xmlns="http://www.w3.org/2000/svg" viewBox="0 0 250 250"><defs><style>.cls-1{fill:none;stroke:#000;stroke-linecap:round;stroke-linejoin:round;stroke-width:8px;}</style></defs><g id="Final_logotype" data-name="Final logotype"><path d="M60.1,142.33a3.83,3.83,0,0,1-1.74,1.76,2.84,2.84,0,0,1-2.25-.13.62.62,0,0,1-.38-.38.63.63,0,0,1,.09-.52.61.61,0,0,1,.38-.34.83.83,0,0,1,.52.06,1.44,1.44,0,0,0,1.23,0,2.75,2.75,0,0,0,1-1.14l1.28-2.26a2.38,2.38,0,0,0,.42-1.66,3.19,3.19,0,0,0-2.86-1.6c-.41.11-.81.52-1.2,1.21l-1.13,2a3.39,3.39,0,0,1-1.91,1.76,3.32,3.32,0,0,1-2.53-.52,2.81,2.81,0,0,1-1.23-4.41l1.11-2a3.61,3.61,0,0,1,1.64-1.65,2.69,2.69,0,0,1,2.12.11.61.61,0,0,1,.38.37.71.71,0,0,1-.1.53.63.63,0,0,1-.38.33.82.82,0,0,1-.52-.06,1.28,1.28,0,0,0-1.1,0,2.69,2.69,0,0,0-.89,1l-1.11,2a2.09,2.09,0,0,0-.39,1.52,3,3,0,0,0,2.64,1.48c.38-.1.75-.48,1.11-1.13l1.13-2a3.49,3.49,0,0,1,2-1.84,3.56,3.56,0,0,1,2.67.54,3.49,3.49,0,0,1,1.83,2,3.53,3.53,0,0,1-.54,2.66Z"/><path d="M55.75,128.76a.69.69,0,0,1-1.07.29l-.42-.24a.68.68,0,0,1-.29-1.06l.23-.42a.69.69,0,0,1,1-.27l.42.24a.68.68,0,0,1,.32,1ZM65,133.68a.6.6,0,0,1-.91.26l-6.62-3.73a.59.59,0,0,1-.24-.91.58.58,0,0,1,.89-.25l6.62,3.73A.59.59,0,0,1,65,133.68Z"/><path d="M68.58,127.28a3,3,0,0,1-4.68,1.31l-1.79-1a3.49,3.49,0,0,1-1.84-2,3.58,3.58,0,0,1,.54-2.68l1.76-3.12-2.64-1.48a.59.59,0,0,1-.25-.91.58.58,0,0,1,.9-.24l9.83,5.53a.59.59,0,0,1,.26.9.6.6,0,0,1-.91.26l-.29-.17a2.59,2.59,0,0,1,.1,1.34,5.36,5.36,0,0,1-.65,1.68Zm-1.15-.65.33-.59a5.32,5.32,0,0,0,.72-2,1.15,1.15,0,0,0-.53-1.24l-4.23-2.38L62,123.55a2.43,2.43,0,0,0-.42,1.68,2.33,2.33,0,0,0,1.22,1.2l1.79,1a2.29,2.29,0,0,0,1.67.42A2.41,2.41,0,0,0,67.43,126.63Z"/><path d="M69.73,117.25l.44.25a1.73,1.73,0,0,0,2.86-.82l.73-1.28a3.84,3.84,0,0,0,.53-1.37,1,1,0,0,0-.36-.88,1.06,1.06,0,0,1-.28-.43.68.68,0,0,1,.09-.5.67.67,0,0,1,.4-.35.57.57,0,0,1,.5.15,2.28,2.28,0,0,1,1,1.7,4.36,4.36,0,0,1-.69,2.33l-.72,1.28a3.62,3.62,0,0,1-2,1.86,3.53,3.53,0,0,1-2.66-.54l-1.8-1a3,3,0,0,1-1.3-4.68l.72-1.28a3,3,0,0,1,4.67-1.31l.79.45a.58.58,0,0,1,.25.9Zm-2.16-3.65a2.28,2.28,0,0,0-.44,1.67c.11.41.52.81,1.24,1.21l.21.12,2.79-5-.21-.12a2.35,2.35,0,0,0-1.66-.43c-.41.11-.81.52-1.21,1.23Z"/><path d="M82,103.43a.6.6,0,0,1-.91.26L72.82,99l0-.47.66,2.64a.85.85,0,0,1,0,.48.51.51,0,0,1-.38.29c-.39.11-.64,0-.77-.48l-.84-3.14a1.1,1.1,0,0,1,.11-.88c.18-.32.47-.38.85-.16l9.3,5.24A.58.58,0,0,1,82,103.43Z"/><polygon class="cls-1" points="227.79 223.41 22.21 225.57 123.14 46.44 227.79 223.41"/><path d="M163.55,99a3.81,3.81,0,0,1-.66-2.39,2.88,2.88,0,0,1,1.24-1.89.63.63,0,0,1,.52-.13.67.67,0,0,1,.41.34.64.64,0,0,1,.1.5.82.82,0,0,1-.31.42,1.43,1.43,0,0,0-.65,1,2.78,2.78,0,0,0,.49,1.42l1.32,2.23a2.34,2.34,0,0,0,1.23,1.2,2.29,2.29,0,0,0,1.62-.44,2.33,2.33,0,0,0,1.19-1.24,2.29,2.29,0,0,0-.44-1.64l-1.18-2A3.27,3.27,0,1,1,174,93.1l1.15,2a3.53,3.53,0,0,1,.61,2.25,2.72,2.72,0,0,1-1.15,1.79.61.61,0,0,1-.51.14.8.8,0,0,1-.51-.85.76.76,0,0,1,.32-.41,1.31,1.31,0,0,0,.55-1,2.55,2.55,0,0,0-.45-1.29l-1.15-2c-.38-.63-.75-1-1.12-1.09a2.19,2.19,0,0,0-1.51.42,1.59,1.59,0,0,0-.68,2.65l1.18,2a3.49,3.49,0,0,1,.59,2.64,3.42,3.42,0,0,1-6.47.83Z"/><path d="M168.6,107.53a.59.59,0,0,1,.23-.92l6.54-3.86a.66.66,0,0,1,.68,1.14l-6.54,3.86A.59.59,0,0,1,168.6,107.53Zm8.87-5.53a.69.69,0,0,1,.29-1.07l.42-.25a.69.69,0,0,1,1.06.27l.24.42a.67.67,0,0,1-.28,1l-.42.25a.68.68,0,0,1-1.06-.24Z"/><path d="M172.34,113.85a3,3,0,0,1,1.21-4.71l1.76-1a3,3,0,0,1,4.71,1.22l1.82,3.08,2.6-1.54a.58.58,0,0,1,.91.24.57.57,0,0,1-.24.9l-9.7,5.74a.66.66,0,1,1-.68-1.14l.29-.17a2.65,2.65,0,0,1-1.21-.58,5.27,5.27,0,0,1-1.12-1.4Zm1.14-.68.35.59a5.1,5.1,0,0,0,1.36,1.61,1.12,1.12,0,0,0,1.33.16l4.18-2.47L178.88,110c-.42-.7-.83-1.1-1.24-1.2a2.37,2.37,0,0,0-1.65.45l-1.77,1c-.7.42-1.1.83-1.2,1.25A2.31,2.31,0,0,0,173.48,113.17Z"/><path d="M180.45,119.86l-.43.26a2.31,2.31,0,0,0-1.19,1.22,2.33,2.33,0,0,0,.46,1.66l.75,1.27a4,4,0,0,0,.92,1.15,1.07,1.07,0,0,0,.94.13,1,1,0,0,1,.52,0,.61.61,0,0,1,.38.32.72.72,0,0,1,.11.53.62.62,0,0,1-.38.36,2.28,2.28,0,0,1-1.95,0A4.3,4.3,0,0,1,178.9,125l-.75-1.27a3.6,3.6,0,0,1-.6-2.66,3.49,3.49,0,0,1,1.8-2l1.78-1.06a3.56,3.56,0,0,1,2.68-.6,3.5,3.5,0,0,1,2,1.82l.75,1.27a3.49,3.49,0,0,1,.6,2.65,3.45,3.45,0,0,1-1.81,2l-.77.46a.59.59,0,0,1-.91-.22Zm4.24,0c-.4-.7-.81-1.11-1.22-1.21a2.36,2.36,0,0,0-1.67.46l-.21.13,2.9,4.9.21-.12q1.05-.63,1.2-1.23a2.34,2.34,0,0,0-.46-1.66Z"/><path d="M188.41,141l-3.47-5.86a.6.6,0,0,1,.23-.93,4.73,4.73,0,0,1,1.86-.69,4.42,4.42,0,0,1,1.67.08,7.12,7.12,0,0,1,1.53.59c.5.25,1,.52,1.46.78.64.37,1.19.67,1.65.91a3.72,3.72,0,0,0,1.22.41,1.76,1.76,0,0,0,1.09-.27,1.57,1.57,0,0,0,.68-2.62l-1-1.65a2.6,2.6,0,0,0-.92-1,1.28,1.28,0,0,0-1.11.05,1,1,0,0,1-.52.06.61.61,0,0,1-.39-.33.58.58,0,0,1,.27-.91,2.75,2.75,0,0,1,2.12-.15,3.5,3.5,0,0,1,1.68,1.62l1,1.66a2.83,2.83,0,0,1-1.14,4.44,2.8,2.8,0,0,1-1.74.44,4.62,4.62,0,0,1-1.73-.51c-.59-.29-1.2-.62-1.83-1s-1.11-.61-1.6-.85a4.38,4.38,0,0,0-1.46-.45,3,3,0,0,0-1.54.24l3.12,5.27a.66.66,0,1,1-1.14.67Z"/><path d="M101.5,218.62a.59.59,0,0,1-.67-.67V207.28a.59.59,0,0,1,.67-.67h4.7a2.92,2.92,0,0,1,2.13.73,2.84,2.84,0,0,1,.74,2.1v.49a2.27,2.27,0,0,1-.81,1.91,3,3,0,0,1,1.47,2.89v.6a3.29,3.29,0,0,1-.84,2.45,3.37,3.37,0,0,1-2.46.84Zm.65-7.16h4.31a1.16,1.16,0,0,0,1-.41,2,2,0,0,0,.28-1.12v-.49a1.55,1.55,0,0,0-.35-1.16,1.66,1.66,0,0,0-1.19-.34h-4Zm0,5.84h4.28a2.09,2.09,0,0,0,1.52-.47,2.06,2.06,0,0,0,.46-1.5v-.6a1.66,1.66,0,0,0-2-1.95h-4.28Z"/><path d="M115.35,218.62a2.91,2.91,0,1,1,0-5.8h3.9a1.88,1.88,0,0,0-.51-1.41,2.5,2.5,0,0,0-1.59-.39h-1a4.74,4.74,0,0,0-1.46.17.94.94,0,0,0-.63.56,1.26,1.26,0,0,1-.28.46.71.71,0,0,1-.45.13.68.68,0,0,1-.52-.19.49.49,0,0,1-.11-.49,2.13,2.13,0,0,1,1.06-1.49,5,5,0,0,1,2.39-.47h1a3,3,0,0,1,3.43,3.43V218a.59.59,0,0,1-.66.67.59.59,0,0,1-.67-.67v-.56a3.37,3.37,0,0,1-2.89,1.23Zm0-1.32h1a5.67,5.67,0,0,0,1.34-.15,2.22,2.22,0,0,0,1-.5,1.63,1.63,0,0,0,.53-1v-1.48h-3.9a1.59,1.59,0,1,0,0,3.14Z"/><path d="M126.08,218.62a3,3,0,0,1-1.78-.47,2.17,2.17,0,0,1-.8-1.43.59.59,0,0,1,.13-.52.69.69,0,0,1,.52-.19.57.57,0,0,1,.46.16,1.18,1.18,0,0,1,.24.49.74.74,0,0,0,.38.5,2.25,2.25,0,0,0,.85.13h3a1.48,1.48,0,0,0,1-.26,2.06,2.06,0,0,0,0-2,1.48,1.48,0,0,0-1-.26h-2.91a2.22,2.22,0,0,1-2.51-2.51,2.6,2.6,0,0,1,.62-1.9,2.54,2.54,0,0,1,1.89-.63h2.82a2.13,2.13,0,0,1,2.42,1.79.56.56,0,0,1-.13.52.71.71,0,0,1-.52.18.6.6,0,0,1-.46-.17,1,1,0,0,1-.23-.46.59.59,0,0,0-.34-.42,1.74,1.74,0,0,0-.74-.12h-2.82a1.34,1.34,0,0,0-1,.24,1.39,1.39,0,0,0-.24,1,1,1,0,0,0,1.19,1.18H129a2.62,2.62,0,1,1,0,5.22Z"/><path d="M135.66,214.7v.5a2.33,2.33,0,0,0,.45,1.65,2.37,2.37,0,0,0,1.67.45h1.47a3.78,3.78,0,0,0,1.46-.21,1.06,1.06,0,0,0,.59-.75,1.1,1.1,0,0,1,.23-.46.69.69,0,0,1,.48-.16.65.65,0,0,1,.5.18.58.58,0,0,1,.12.51,2.28,2.28,0,0,1-1,1.66,4.31,4.31,0,0,1-2.37.55h-1.47a3.55,3.55,0,0,1-2.6-.84,3.5,3.5,0,0,1-.84-2.58v-2.07a3,3,0,0,1,3.44-3.43h1.47a3,3,0,0,1,3.43,3.43v.9a.59.59,0,0,1-.66.67Zm2.12-3.68a2.32,2.32,0,0,0-1.67.44,2.35,2.35,0,0,0-.45,1.67v.24h5.7v-.24a1.73,1.73,0,0,0-2.11-2.11Z"/></g></svg>