<svg xmlns="http://www.w3.org/2000/svg" viewBox="0 0 300 100"><defs><style>.cls-1,.cls-2{fill:none;stroke:#000;stroke-linecap:round;stroke-width:3px;}.cls-1{stroke-miterlimit:10;}.cls-2{stroke-linejoin:round;}</style></defs><g id="Final_logotype" data-name="Final logotype"><path d="M56,76.06q-7.82,0-11.41-3.6T41,61V44.67q0-7.89,3.58-11.45t11.36-3.57h8.71q6.63,0,9.87,2.76t3.56,8.84a1.73,1.73,0,0,1-.38,1.47,1.87,1.87,0,0,1-1.42.51,1.83,1.83,0,0,1-2-1.91c-.17-3-1-5-2.45-6.18s-3.86-1.71-7.2-1.71H55.92a16.8,16.8,0,0,0-6.59,1.07A6.51,6.51,0,0,0,45.82,38a17.12,17.12,0,0,0-1.06,6.65V61a16.72,16.72,0,0,0,1.08,6.63,6.7,6.7,0,0,0,3.53,3.53A16.7,16.7,0,0,0,56,72.28h8.64q5,0,7.2-1.71c1.47-1.14,2.28-3.2,2.45-6.18A2,2,0,0,1,77.68,63a1.73,1.73,0,0,1,.38,1.46q-.33,6.07-3.56,8.83t-9.87,2.76Z"/><path d="M91,35.49a2.23,2.23,0,0,1-2.49-2.56V31.31A2.19,2.19,0,0,1,91,28.83h1.62A2.16,2.16,0,0,1,95,31.31v1.62c0,1.7-.8,2.56-2.41,2.56Zm.83,40.57a1.69,1.69,0,0,1-1.91-1.91V43.91a1.89,1.89,0,0,1,3.78,0V74.15A1.67,1.67,0,0,1,91.78,76.06Z"/><path d="M109,76.06a1.69,1.69,0,0,1-1.91-1.91V43.91A1.67,1.67,0,0,1,109,42a1.65,1.65,0,0,1,1.87,1.87v5.54a12.79,12.79,0,0,1,5.42-5.5,17.37,17.37,0,0,1,8.4-1.91,1.67,1.67,0,0,1,1.91,1.87,1.69,1.69,0,0,1-1.91,1.91q-6.4,0-9.93,2.9A11.11,11.11,0,0,0,110.89,57V74.15A1.67,1.67,0,0,1,109,76.06Z"/><line class="cls-1" x1="148.38" y1="56.96" x2="158.71" y2="57.25"/><polyline class="cls-1" points="164.36 66.49 158.71 57.25 163.23 47.88"/><polyline class="cls-2" points="169.07 38.05 147.11 38.27 137.34 57.45 148.71 76.06 170.2 76.04"/><path d="M196.47,76.06c-3.4,0-5.91-.79-7.5-2.38s-2.4-4.07-2.4-7.45V28a1.69,1.69,0,0,1,1.91-1.91A1.67,1.67,0,0,1,190.35,28v38.2c0,2.33.44,3.92,1.3,4.77s2.46,1.28,4.79,1.28c1.29,0,1.94.62,1.94,1.87A1.67,1.67,0,0,1,196.47,76.06Z"/><path d="M208.93,60.51v2.62q0,5.08,2,7.11c1.36,1.36,3.75,2,7.19,2h5.9c3,0,5.23-.39,6.61-1.17a5,5,0,0,0,2.43-4,2.69,2.69,0,0,1,.63-1.37,2.23,2.23,0,0,1,2.8,0,1.74,1.74,0,0,1,.38,1.46,8.69,8.69,0,0,1-3.63,6.7q-3.18,2.16-9.22,2.16h-5.9q-6.74,0-9.87-3.12t-3.13-9.81V55q0-6.81,3.13-9.92t9.87-3h5.9q6.73,0,9.85,3.11T237,55v3.6a1.67,1.67,0,0,1-1.87,1.91Zm9.22-14.69c-3.44,0-5.83.6-7.19,2s-2,3.76-2,7.22v1.73h24.3V55q0-5.14-2-7.17t-7.16-2Z"/></g></svg>