<svg xmlns="http://www.w3.org/2000/svg" viewBox="0 0 350 100"><defs><style>.cls-1,.cls-2{fill:none;stroke:#fff;stroke-linecap:round;stroke-width:3px;}.cls-1{stroke-miterlimit:10;}.cls-2{stroke-linejoin:round;}.cls-3{fill:#fff;}</style></defs><g id="Final_logotype" data-name="Final logotype"><line class="cls-1" x1="146.81" y1="47.07" x2="157.32" y2="53.9"/><polyline class="cls-1" points="157.32 67.04 157.32 53.9 167.92 47.07"/><polygon class="cls-2" points="135.07 40.59 135.07 67.04 157.32 80.61 180.18 67.04 180.18 40.59 157.32 26.92 135.07 40.59"/><path class="cls-3" d="M65.57,71.3q-7.81,0-11.42-3.6t-3.6-11.41V39.91q0-7.89,3.58-11.45T65.49,24.9h8.72q6.62,0,9.86,2.75t3.56,8.84A1.71,1.71,0,0,1,87.26,38a1.89,1.89,0,0,1-1.43.51,1.83,1.83,0,0,1-2-1.91c-.17-3-1-5-2.44-6.17s-3.87-1.71-7.2-1.71H65.49a16.77,16.77,0,0,0-6.58,1.06,6.46,6.46,0,0,0-3.51,3.53,17,17,0,0,0-1.07,6.64V56.29a16.7,16.7,0,0,0,1.08,6.62,6.7,6.7,0,0,0,3.53,3.53,16.72,16.72,0,0,0,6.63,1.08h8.64a15.35,15.35,0,0,0,5.81-.9,5.5,5.5,0,0,0,3-3,15.44,15.44,0,0,0,.9-5.87v-4.5l-7.88-.07a1.67,1.67,0,0,1-1.87-1.91,1.65,1.65,0,0,1,1.87-1.87l9.79.07a1.65,1.65,0,0,1,1.87,1.87v6.41q0,7.12-3.2,10.35T74.21,71.3Z"/><path class="cls-3" d="M101.42,71.3a1.69,1.69,0,0,1-1.91-1.91V26.8a1.68,1.68,0,0,1,1.91-1.9h26a1.87,1.87,0,0,1,1.38.48,1.91,1.91,0,0,1,.49,1.42,1.66,1.66,0,0,1-1.87,1.88H103.29V45.92h16.42a1.89,1.89,0,1,1,0,3.78H103.29V69.39A1.67,1.67,0,0,1,101.42,71.3Z"/><path class="cls-3" d="M193.72,71.3a1.68,1.68,0,0,1-1.9-1.91V39.15a1.89,1.89,0,0,1,3.78,0V44.7A12.79,12.79,0,0,1,201,39.19a17.55,17.55,0,0,1,8.41-1.91,1.67,1.67,0,0,1,1.91,1.87,1.69,1.69,0,0,1-1.91,1.91q-6.4,0-9.93,2.9a11.09,11.09,0,0,0-3.89,8.26V69.39A1.67,1.67,0,0,1,193.72,71.3Z"/><path class="cls-3" d="M257.09,37.21q5.79,0,8.29,2.95t2.5,9.76V69.46A1.66,1.66,0,0,1,266,71.34a1.68,1.68,0,0,1-1.91-1.88V49.92q0-4.76-1.62-6.84T257.09,41h-3q-4.72,0-6.75,2.09t-2,6.84V69.46a1.66,1.66,0,0,1-1.87,1.88,1.68,1.68,0,0,1-1.91-1.88V49.92q0-4.76-1.62-6.84T234.51,41h-3q-4.71,0-6.75,2.09t-2,6.84V69.46a1.66,1.66,0,0,1-1.87,1.88A1.68,1.68,0,0,1,219,69.46V39.15a1.67,1.67,0,0,1,1.91-1.87,1.65,1.65,0,0,1,1.87,1.87V42a9.61,9.61,0,0,1,3.76-3.65,12.29,12.29,0,0,1,5.53-1.1h2.48a12.23,12.23,0,0,1,6.07,1.31,9,9,0,0,1,3.62,4.31,10.25,10.25,0,0,1,3.89-4.31,12.09,12.09,0,0,1,6-1.31Z"/><path class="cls-3" d="M288.15,71.26q-4.42,0-6.77-1.89a8.3,8.3,0,0,1-2.8-5.77,1.8,1.8,0,0,1,.39-1.5,2,2,0,0,1,1.48-.52,1.8,1.8,0,0,1,1.35.47,2.49,2.49,0,0,1,.59,1.4A4.28,4.28,0,0,0,284,66.57a7.53,7.53,0,0,0,4.12.88H300c2.23,0,3.77-.42,4.61-1.26s1.26-2.38,1.26-4.61-.42-3.8-1.26-4.62-2.38-1.25-4.61-1.25H288.3c-3.12,0-5.45-.75-7-2.26s-2.28-3.83-2.28-7,.75-5.54,2.26-7,3.84-2.25,7-2.25h11.3q8.13,0,9,7.2a1.62,1.62,0,0,1-.38,1.46,2,2,0,0,1-1.46.52,1.8,1.8,0,0,1-1.35-.47,2.69,2.69,0,0,1-.63-1.37,3.63,3.63,0,0,0-1.46-2.79A7.18,7.18,0,0,0,299.6,41H288.3c-2.09,0-3.53.38-4.3,1.15s-1.17,2.22-1.17,4.36.39,3.45,1.18,4.23,2.22,1.17,4.29,1.17H300q5,0,7.31,2.35t2.34,7.33c0,3.29-.78,5.72-2.34,7.31s-4,2.37-7.31,2.37Z"/></g></svg>