<svg xmlns="http://www.w3.org/2000/svg" viewBox="0 0 350 100"><defs><style>.cls-1,.cls-2{fill:none;stroke:#000;stroke-linecap:round;stroke-width:3px;}.cls-1{stroke-miterlimit:10;}.cls-2{stroke-linejoin:round;}</style></defs><g id="Final_logotype" data-name="Final logotype"><line class="cls-1" x1="146.81" y1="47.07" x2="157.32" y2="53.9"/><polyline class="cls-1" points="157.32 67.04 157.32 53.9 167.92 47.07"/><polyline class="cls-2" points="135.07 40.59 135.07 67.04 157.32 80.61 180.18 67.04 180.18 40.59"/><path d="M58.94,71.26q-6.45,0-9.56-2.86t-3.33-9A1.83,1.83,0,0,1,46.54,58a2.11,2.11,0,0,1,2.75,0,2.13,2.13,0,0,1,.58,1.37Q50,63.86,52,65.65t6.91,1.8H69.31q5.1,0,7.11-2t2-7c0-3.4-.66-5.78-2-7.11s-3.71-2-7.11-2H59.44q-6.33,0-9.29-2.95T47.2,37.1q0-6.3,2.94-9.25t9.23-3H69.45c4,0,7,.9,9,2.7s3,4.63,3.15,8.49a1.66,1.66,0,0,1-.45,1.39,1.91,1.91,0,0,1-1.42.52,1.81,1.81,0,0,1-1.33-.5,2.13,2.13,0,0,1-.58-1.37c-.09-2.76-.77-4.69-2-5.8s-3.36-1.65-6.34-1.65H59.37c-3.14,0-5.33.61-6.55,1.85S51,34,51,37.1s.62,5.34,1.86,6.57,3.43,1.85,6.6,1.85h9.87q6.69,0,9.79,3.12t3.09,9.77q0,6.66-3.09,9.76t-9.79,3.09Z"/><path d="M123.7,85.7a1.69,1.69,0,0,1-1.91-1.91V71.3H106.71q-6.73,0-9.87-3.13T93.71,58.3V50.24q0-6.74,3.13-9.85t9.87-3.11h2.73a19.76,19.76,0,0,1,7.8,1.3,9.61,9.61,0,0,1,4.55,3.81V39.15a1.67,1.67,0,0,1,1.91-1.87,1.65,1.65,0,0,1,1.87,1.87V83.79A1.67,1.67,0,0,1,123.7,85.7Zm-17-18.18h15.08V48.19a5.73,5.73,0,0,0-3.36-5.37,19.55,19.55,0,0,0-9-1.76h-2.73c-3.43,0-5.83.67-7.18,2s-2,3.73-2,7.16V58.3c0,3.44.68,5.83,2,7.19S103.28,67.52,106.71,67.52Z"/><path d="M201.93,71.3q-5.61,0-8.22-2.61t-2.61-8.23q0-5.61,2.62-8.24c1.76-1.75,4.49-2.63,8.21-2.63h16.38q-.08-4.76-2.14-6.64c-1.38-1.26-3.72-1.89-7-1.89H205a17.1,17.1,0,0,0-6.7,1,4.5,4.5,0,0,0-2.63,3.31,3.06,3.06,0,0,1-.66,1.32,1.8,1.8,0,0,1-1.32.41,1.94,1.94,0,0,1-1.45-.52,1.53,1.53,0,0,1-.38-1.42,7.42,7.42,0,0,1,3.72-6c2.17-1.24,5.31-1.87,9.42-1.87h4.17q6.74,0,9.85,3.12t3.11,9.84V69.39a1.67,1.67,0,0,1-1.87,1.91,1.69,1.69,0,0,1-1.91-1.91V65.83Q214.86,71.31,206,71.3Zm0-3.78h4a22.15,22.15,0,0,0,6.14-.77,9.3,9.3,0,0,0,4.27-2.5,7.79,7.79,0,0,0,1.94-4.61V53.41H201.93q-4,0-5.52,1.51t-1.53,5.54q0,4,1.53,5.53T201.93,67.52Z"/><path d="M236.82,71.3a1.68,1.68,0,0,1-1.91-1.91V39.15a1.89,1.89,0,0,1,3.78,0V44.7a12.81,12.81,0,0,1,5.42-5.51,17.48,17.48,0,0,1,8.4-1.91,1.67,1.67,0,0,1,1.91,1.87,1.69,1.69,0,0,1-1.91,1.91q-6.4,0-9.93,2.9a11.09,11.09,0,0,0-3.89,8.26V69.39A1.67,1.67,0,0,1,236.82,71.3Z"/><path d="M263.42,55.75v2.63q0,5.07,2,7.11c1.35,1.35,3.75,2,7.18,2h5.9q4.54,0,6.61-1.17a5,5,0,0,0,2.43-4,2.73,2.73,0,0,1,.63-1.37,1.84,1.84,0,0,1,1.38-.47A1.86,1.86,0,0,1,291,61a1.72,1.72,0,0,1,.37,1.46,8.69,8.69,0,0,1-3.63,6.69c-2.11,1.44-5.19,2.16-9.22,2.16h-5.9q-6.74,0-9.87-3.11t-3.13-9.81V50.24q0-6.8,3.13-9.92t9.87-3h5.9q6.73,0,9.85,3.12t3.11,9.84v3.6a1.67,1.67,0,0,1-1.87,1.91Zm9.22-14.69c-3.43-.05-5.83.61-7.18,2s-2,3.77-2,7.22V52h24.3V50.24q0-5.15-2-7.16t-7.17-2Z"/></g></svg>