<svg xmlns="http://www.w3.org/2000/svg" viewBox="0 0 350 100"><defs><style>.cls-1,.cls-2{fill:none;stroke:#000;stroke-linecap:round;stroke-width:3px;}.cls-1{stroke-miterlimit:10;}.cls-2{stroke-linejoin:round;}</style></defs><g id="Final_logotype" data-name="Final logotype"><path d="M42.69,75.24a1.94,1.94,0,0,1-1.39-.5,1.81,1.81,0,0,1-.52-1.37V32.55H25.48A1.9,1.9,0,0,1,24.09,32a1.83,1.83,0,0,1-.52-1.37,1.9,1.9,0,0,1,.52-1.38,1.87,1.87,0,0,1,1.39-.52H59.9a1.79,1.79,0,0,1,1.36.52,1.9,1.9,0,0,1,.51,1.38,1.76,1.76,0,0,1-1.87,1.88H44.56V73.37a1.78,1.78,0,0,1-1.87,1.87Z"/><path d="M65.26,75.21a1.69,1.69,0,0,1-1.91-1.91V43.06a1.67,1.67,0,0,1,1.91-1.87,1.65,1.65,0,0,1,1.87,1.87V48.6a12.92,12.92,0,0,1,5.42-5.51A17.52,17.52,0,0,1,81,41.19a1.66,1.66,0,0,1,1.9,1.87A1.68,1.68,0,0,1,81,45Q74.54,45,71,47.86a11.14,11.14,0,0,0-3.89,8.27V73.3A1.67,1.67,0,0,1,65.26,75.21Z"/><line class="cls-1" x1="105.45" y1="51.33" x2="115.96" y2="58.16"/><polyline class="cls-1" points="115.96 71.3 115.96 58.16 126.56 51.33"/><polyline class="cls-2" points="138.82 44.85 115.96 31.18 93.71 44.85"/><path d="M160.68,75.21q-5.62,0-8.23-2.61c-1.74-1.74-2.61-4.49-2.61-8.23s.88-6.49,2.63-8.24,4.49-2.63,8.21-2.63h16.38q-.08-4.76-2.14-6.64t-7-1.89H163.7a17,17,0,0,0-6.69,1,4.46,4.46,0,0,0-2.63,3.31,2.91,2.91,0,0,1-.67,1.31,1.78,1.78,0,0,1-1.31.42,2,2,0,0,1-1.46-.52,1.58,1.58,0,0,1-.38-1.43,7.41,7.41,0,0,1,3.73-6q3.26-1.87,9.41-1.87h4.18c4.48,0,7.77,1,9.84,3.11s3.12,5.36,3.12,9.85V73.3a1.89,1.89,0,1,1-3.78,0V69.73q-3.47,5.47-12.35,5.48Zm0-3.78h4a21.81,21.81,0,0,0,6.14-.78,9.23,9.23,0,0,0,4.26-2.5,7.83,7.83,0,0,0,1.95-4.61V57.31H160.68q-4,0-5.53,1.52t-1.53,5.54c0,2.66.51,4.51,1.53,5.53S158,71.43,160.68,71.43Z"/><path d="M195.56,75.21a1.69,1.69,0,0,1-1.91-1.91V43.06a1.67,1.67,0,0,1,1.91-1.87,1.65,1.65,0,0,1,1.87,1.87v3.45q3.42-5.32,12.39-5.32h2q6.73,0,9.85,3.11t3.11,9.85V73.3a1.67,1.67,0,0,1-1.87,1.91A1.69,1.69,0,0,1,221,73.3V54.15c0-3.44-.67-5.82-2-7.17s-3.74-2-7.15-2h-2c-3.72,0-6.65.58-8.79,1.76a6.76,6.76,0,0,0-3.6,5.51V73.3A1.67,1.67,0,0,1,195.56,75.21Z"/><path d="M245.89,89.61c-2.83,0-5-.59-6.48-1.75a7.59,7.59,0,0,1-2.63-5.49,1.77,1.77,0,0,1,.4-1.48,1.81,1.81,0,0,1,1.4-.54,1.86,1.86,0,0,1,1.37.47,2.5,2.5,0,0,1,.61,1.41A3.61,3.61,0,0,0,242,85.07a7.57,7.57,0,0,0,3.85.76h13.39c2.11,0,3.55-.39,4.3-1.16s1.14-2.2,1.14-4.32V70.06A10.26,10.26,0,0,1,260,73.91a19.69,19.69,0,0,1-7.67,1.3h-2.74q-6.74,0-9.86-3.12t-3.13-9.81V54.15q0-6.81,3.11-9.89t9.88-3.07h5.91a14.82,14.82,0,0,1,5.72.93A7.54,7.54,0,0,1,264.72,45v-2a1.89,1.89,0,0,1,3.78,0V80.35q0,4.75-2.24,7t-7,2.25Zm3.74-18.18h2.74a19.36,19.36,0,0,0,9-1.77,5.71,5.71,0,0,0,3.37-5.36v-12q0-4.07-2.27-5.68c-1.51-1.08-3.82-1.62-6.91-1.62h-5.91q-5.15,0-7.18,2c-1.36,1.34-2,3.73-2,7.19v8.13c0,3.39.67,5.76,2,7.11S246.2,71.43,249.63,71.43Z"/><path d="M291.21,75.21c-3.41,0-5.91-.8-7.5-2.38s-2.4-4.07-2.4-7.45V27.18a1.69,1.69,0,0,1,1.91-1.91,1.67,1.67,0,0,1,1.87,1.91v38.2q0,3.5,1.3,4.77t4.79,1.28c1.29,0,1.94.62,1.94,1.87A1.67,1.67,0,0,1,291.21,75.21Z"/><path d="M303.67,59.65v2.63q0,5.09,2,7.11t7.18,2h5.91q4.53,0,6.6-1.17a5,5,0,0,0,2.43-4.05,2.69,2.69,0,0,1,.63-1.37,1.87,1.87,0,0,1,1.39-.47,1.84,1.84,0,0,1,1.42.52,1.74,1.74,0,0,1,.38,1.46,8.69,8.69,0,0,1-3.64,6.7q-3.17,2.16-9.21,2.16h-5.91q-6.72,0-9.86-3.12t-3.13-9.81V54.15q0-6.81,3.13-9.92t9.86-3h5.91q6.73,0,9.84,3.11t3.12,9.85v3.6a1.67,1.67,0,0,1-1.87,1.9ZM312.88,45q-5.14-.07-7.18,2t-2,7.22v1.72H328V54.15c0-3.44-.67-5.82-2-7.17s-3.73-2-7.16-2Z"/></g></svg>