<svg xmlns="http://www.w3.org/2000/svg" viewBox="0 0 350 100"><defs><style>.cls-1,.cls-2{fill:none;stroke:#000;stroke-linecap:round;stroke-width:3px;}.cls-1{stroke-miterlimit:10;}.cls-2{stroke-linejoin:round;}</style></defs><g id="Final_logotype" data-name="Final logotype"><path d="M95,77.17q-7.82,0-11.41-3.6T80,62.15V45.77q0-7.87,3.58-11.44T95,30.76h8.71q6.63,0,9.87,2.76t3.56,8.83a1.75,1.75,0,0,1-.38,1.48,1.86,1.86,0,0,1-1.42.5,1.82,1.82,0,0,1-2-1.9c-.17-3-1-5-2.45-6.18s-3.86-1.71-7.2-1.71H95a17,17,0,0,0-6.59,1.06,6.56,6.56,0,0,0-3.51,3.53,17.09,17.09,0,0,0-1.06,6.64V62.15a16.72,16.72,0,0,0,1.08,6.63,6.7,6.7,0,0,0,3.53,3.53A16.7,16.7,0,0,0,95,73.39h8.64q5,0,7.2-1.71c1.47-1.14,2.28-3.2,2.45-6.18a2,2,0,0,1,3.4-1.38,1.71,1.71,0,0,1,.38,1.45q-.33,6.09-3.56,8.84t-9.87,2.76Z"/><path d="M130,36.59A2.23,2.23,0,0,1,127.51,34V32.42A2.2,2.2,0,0,1,130,29.93h1.62A2.16,2.16,0,0,1,134,32.42V34c0,1.7-.8,2.55-2.41,2.55Zm.83,40.58a1.69,1.69,0,0,1-1.91-1.91V45a1.89,1.89,0,0,1,3.78,0V75.26A1.67,1.67,0,0,1,130.83,77.17Z"/><path d="M148.07,77.17a1.69,1.69,0,0,1-1.91-1.91V45a1.67,1.67,0,0,1,1.91-1.87A1.65,1.65,0,0,1,149.94,45v5.54a12.87,12.87,0,0,1,5.42-5.51,17.52,17.52,0,0,1,8.41-1.9,1.66,1.66,0,0,1,1.9,1.87,1.68,1.68,0,0,1-1.9,1.91q-6.42,0-9.94,2.89a11.14,11.14,0,0,0-3.89,8.27V75.26A1.67,1.67,0,0,1,148.07,77.17Z"/><line class="cls-1" x1="187.43" y1="58.07" x2="197.76" y2="58.36"/><polyline class="cls-1" points="203.41 67.6 197.76 58.36 202.28 48.99"/><polyline class="cls-2" points="208.12 39.16 186.16 39.38 176.39 58.56 187.76 77.17 209.25 77.15"/><path d="M235.52,77.17c-3.4,0-5.91-.8-7.5-2.38s-2.4-4.07-2.4-7.45V29.14a1.69,1.69,0,0,1,1.91-1.91,1.67,1.67,0,0,1,1.87,1.91v38.2c0,2.33.44,3.92,1.3,4.77s2.46,1.28,4.79,1.28c1.29,0,1.94.62,1.94,1.87A1.67,1.67,0,0,1,235.52,77.17Z"/><path d="M248,61.61v2.63q0,5.08,2,7.11c1.36,1.36,3.75,2,7.19,2h5.9c3,0,5.23-.39,6.61-1.17a5,5,0,0,0,2.43-4,2.69,2.69,0,0,1,.63-1.37,1.84,1.84,0,0,1,1.38-.47,1.82,1.82,0,0,1,1.42.52,1.74,1.74,0,0,1,.38,1.46,8.71,8.71,0,0,1-3.63,6.7q-3.18,2.16-9.22,2.16h-5.9q-6.73,0-9.87-3.12t-3.13-9.81V56.11q0-6.81,3.13-9.92t9.87-3h5.9q6.73,0,9.85,3.11t3.11,9.85v3.6a1.66,1.66,0,0,1-1.87,1.9Zm9.22-14.68c-3.44,0-5.83.6-7.19,2s-2,3.76-2,7.22v1.72h24.3V56.11c0-3.44-.67-5.82-2-7.17s-3.73-2-7.16-2Z"/></g></svg>