<svg xmlns="http://www.w3.org/2000/svg" viewBox="0 0 250 250"><defs><style>.cls-1,.cls-2,.cls-3{fill:none;stroke:#000;stroke-miterlimit:10;}.cls-1{stroke-width:8px;}.cls-2,.cls-3{stroke-linecap:round;stroke-width:4px;}.cls-3{stroke-dasharray:10.57 10.57;}</style></defs><g id="Final_logotype" data-name="Final logotype"><path d="M163.48,154.56a.59.59,0,0,1-.5.1.68.68,0,0,1-.4-.32l-2.84-4.66H157v4.18a.66.66,0,1,1-1.32,0V143.19a.59.59,0,0,1,.66-.67h4.21a3,3,0,0,1,3.31,3.31v.54a3.49,3.49,0,0,1-.66,2.24,2.8,2.8,0,0,1-1.89,1l2.46,4A.59.59,0,0,1,163.48,154.56ZM157,148.35h3.55a1.67,1.67,0,0,0,2-2v-.54a2.09,2.09,0,0,0-.46-1.52,2.06,2.06,0,0,0-1.52-.46H157Z"/><path d="M169.41,154.53a2.53,2.53,0,0,1-2.89-2.9,3,3,0,0,1,.7-2.19,3,3,0,0,1,2.19-.71h3.9a1.84,1.84,0,0,0-.5-1.41,2.53,2.53,0,0,0-1.6-.39h-1a4.67,4.67,0,0,0-1.45.17,1,1,0,0,0-.64.56,1.13,1.13,0,0,1-.27.46.72.72,0,0,1-.46.13.66.66,0,0,1-.51-.19.49.49,0,0,1-.12-.49,2.14,2.14,0,0,1,1.07-1.49,5,5,0,0,1,2.38-.47h1a3,3,0,0,1,3.43,3.43v4.82a.58.58,0,0,1-.65.67.59.59,0,0,1-.67-.67v-.56a3.39,3.39,0,0,1-2.9,1.23Zm0-1.32h1a5.55,5.55,0,0,0,1.34-.15,2.31,2.31,0,0,0,1-.5,1.73,1.73,0,0,0,.53-1v-1.49h-3.91a1.27,1.27,0,0,0-1.57,1.57,1.81,1.81,0,0,0,.32,1.25A1.78,1.78,0,0,0,169.41,153.21Z"/><path d="M181.16,154.53a3,3,0,0,1-3.44-3.44V149a3.51,3.51,0,0,1,.84-2.59,3.55,3.55,0,0,1,2.6-.84h3.58v-3a.59.59,0,0,1,.67-.67c.44,0,.65.22.65.67v11.27c0,.45-.21.67-.65.67a.59.59,0,0,1-.67-.67v-.33a2.62,2.62,0,0,1-1.11.74,5.33,5.33,0,0,1-1.79.26Zm0-1.32h.68a5.18,5.18,0,0,0,2.08-.36,1.13,1.13,0,0,0,.82-1.07v-4.85h-3.58A1.74,1.74,0,0,0,179,149v2.05a1.74,1.74,0,0,0,2.12,2.12Z"/><path d="M189.94,144.08a.69.69,0,0,1-.78-.79v-.49a.69.69,0,0,1,.78-.77h.48a.67.67,0,0,1,.75.77v.49c0,.53-.25.79-.75.79Zm.24,10.45a.59.59,0,0,1-.67-.67v-7.59a.59.59,0,0,1,.67-.66.58.58,0,0,1,.65.66v7.59C190.83,154.31,190.62,154.53,190.18,154.53Z"/><path d="M197.52,154.53a3.57,3.57,0,0,1-2.6-.84,3.51,3.51,0,0,1-.84-2.58V149a3,3,0,0,1,3.44-3.43H199a3,3,0,0,1,3.43,3.43v2.05a3,3,0,0,1-3.43,3.44Zm-2.11-3.42a1.73,1.73,0,0,0,2.11,2.1H199a2.34,2.34,0,0,0,1.66-.45,2.42,2.42,0,0,0,.44-1.67V149a2.39,2.39,0,0,0-.44-1.66,2.34,2.34,0,0,0-1.66-.45h-1.48a3.57,3.57,0,0,0-1.27.19,1.18,1.18,0,0,0-.65.65,3.36,3.36,0,0,0-.19,1.27Z"/><circle class="cls-1" cx="130.05" cy="130.63" r="105.11"/><line class="cls-2" x1="130.05" y1="130.63" x2="135.05" y2="130.63"/><line class="cls-3" x1="145.62" y1="130.63" x2="224.87" y2="130.63"/><line class="cls-2" x1="230.16" y1="130.63" x2="235.16" y2="130.63"/></g></svg>