<svg xmlns="http://www.w3.org/2000/svg" viewBox="0 0 250 250"><defs><style>.cls-1{fill:none;stroke:#000;stroke-linecap:round;stroke-linejoin:round;stroke-width:8px;}</style></defs><g id="Final_logotype" data-name="Final logotype"><rect class="cls-1" x="27.25" y="30.06" width="195.5" height="195.5"/><path d="M110.83,217.07a3.86,3.86,0,0,1-2.39-.65,2.9,2.9,0,0,1-1-2,.62.62,0,0,1,.15-.52.67.67,0,0,1,.5-.18.64.64,0,0,1,.48.17.79.79,0,0,1,.2.48,1.47,1.47,0,0,0,.57,1.1,2.83,2.83,0,0,0,1.48.3h2.6a2.33,2.33,0,0,0,1.64-3.72,2.26,2.26,0,0,0-1.64-.46h-2.31a3.27,3.27,0,1,1,0-6.5h2.27a3.61,3.61,0,0,1,2.25.62,2.76,2.76,0,0,1,.95,1.9.59.59,0,0,1-.14.51.69.69,0,0,1-.51.18.65.65,0,0,1-.48-.17.82.82,0,0,1-.2-.48,1.3,1.3,0,0,0-.53-1,2.59,2.59,0,0,0-1.34-.27H111.1a2.08,2.08,0,0,0-1.51.41,2.12,2.12,0,0,0-.4,1.5,2.15,2.15,0,0,0,.41,1.52,2.11,2.11,0,0,0,1.52.42h2.31a3,3,0,0,1,3.42,3.43,3.47,3.47,0,0,1-.84,2.57,3.55,3.55,0,0,1-2.58.83Z"/><path d="M120.52,206.62a.69.69,0,0,1-.78-.79v-.49a.69.69,0,0,1,.78-.77H121a.67.67,0,0,1,.75.77v.49c0,.53-.25.79-.75.79Zm.24,10.45a.59.59,0,0,1-.66-.67v-7.59a.66.66,0,0,1,1.32,0v7.59A.59.59,0,0,1,120.76,217.07Z"/><path d="M128.11,217.07a3,3,0,0,1-3.44-3.44v-2a3.51,3.51,0,0,1,.84-2.59,3.55,3.55,0,0,1,2.6-.84h3.58v-3a.66.66,0,1,1,1.32,0V216.4a.66.66,0,1,1-1.32,0v-.33a2.65,2.65,0,0,1-1.12.74,5.27,5.27,0,0,1-1.78.26Zm0-1.32h.68a5.4,5.4,0,0,0,2.08-.35,1.17,1.17,0,0,0,.82-1.08v-4.85h-3.58a1.74,1.74,0,0,0-2.12,2.11v2a1.73,1.73,0,0,0,2.12,2.12Z"/><path d="M137.41,213.15v.5a2.33,2.33,0,0,0,.45,1.65,2.37,2.37,0,0,0,1.67.45H141a3.57,3.57,0,0,0,1.46-.22,1,1,0,0,0,.59-.74,1,1,0,0,1,.23-.46.69.69,0,0,1,.48-.16.65.65,0,0,1,.5.18.57.57,0,0,1,.12.5,2.28,2.28,0,0,1-1,1.67,4.25,4.25,0,0,1-2.36.55h-1.47a3.55,3.55,0,0,1-2.6-.84,3.51,3.51,0,0,1-.84-2.58v-2.07a3,3,0,0,1,3.44-3.43H141a3,3,0,0,1,3.43,3.43v.9a.59.59,0,0,1-.66.67Zm2.12-3.68a2.33,2.33,0,0,0-1.67.43,2.38,2.38,0,0,0-.45,1.68v.24h5.7v-.24a1.73,1.73,0,0,0-2.11-2.11Z"/></g></svg>