<svg xmlns="http://www.w3.org/2000/svg" viewBox="0 0 250 250"><defs><style>.cls-1,.cls-2,.cls-3,.cls-4,.cls-5,.cls-6,.cls-7{fill:none;stroke:#000;stroke-linecap:round;stroke-width:8px;}.cls-1,.cls-2{stroke-linejoin:round;}.cls-2{stroke-dasharray:11.39 11.39;}.cls-3,.cls-4,.cls-5,.cls-6,.cls-7{stroke-miterlimit:10;}.cls-4{stroke-dasharray:12.2 12.2;}.cls-5{stroke-dasharray:10.91 10.91;}.cls-6{stroke-dasharray:12 12;}.cls-7{stroke-dasharray:9.71 9.71;}</style></defs><g id="Final_logotype" data-name="Final logotype"><polyline class="cls-1" points="224.74 218.25 227.79 223.41 221.79 223.48"/><line class="cls-2" x1="210.41" y1="223.59" x2="33.9" y2="225.44"/><polyline class="cls-1" points="28.2 225.5 22.21 225.57 25.15 220.34"/><line class="cls-2" x1="30.74" y1="210.42" x2="117.39" y2="56.63"/><polyline class="cls-1" points="120.19 51.67 123.14 46.44 126.19 51.61"/><line class="cls-2" x1="131.99" y1="61.41" x2="221.84" y2="213.35"/><line class="cls-3" x1="57.66" y1="225.19" x2="60.58" y2="219.95"/><line class="cls-4" x1="66.52" y1="209.29" x2="134.78" y2="86.65"/><line class="cls-3" x1="137.74" y1="81.32" x2="140.66" y2="76.08"/><line class="cls-3" x1="96.61" y1="225.57" x2="99.53" y2="220.32"/><line class="cls-5" x1="104.84" y1="210.79" x2="155.26" y2="120.2"/><line class="cls-3" x1="157.91" y1="115.43" x2="160.83" y2="110.19"/><line class="cls-3" x1="132.76" y1="225.57" x2="135.68" y2="220.32"/><line class="cls-6" x1="141.52" y1="209.84" x2="173.62" y2="152.16"/><line class="cls-3" x1="176.54" y1="146.92" x2="179.46" y2="141.68"/><line class="cls-3" x1="169.5" y1="225.19" x2="172.42" y2="219.95"/><line class="cls-7" x1="177.14" y1="211.47" x2="193.67" y2="181.78"/><line class="cls-3" x1="196.03" y1="177.53" x2="198.95" y2="172.29"/></g></svg>