<svg xmlns="http://www.w3.org/2000/svg" viewBox="0 0 400 100"><defs><style>.cls-1{fill:none;stroke:#000;}.cls-1,.cls-2{stroke-linecap:round;stroke-miterlimit:10;stroke-width:6px;}.cls-2{stroke:#0000b4;}</style></defs><g id="gmedian"><path class="cls-1" d="M144.77,50a41.31,41.31,0,1,1-41.3-41.3"/><line class="cls-1" x1="144.77" y1="50" x2="103.47" y2="50"/><line class="cls-2" x1="103.47" y1="8.7" x2="103.47" y2="50"/><path d="M118.83,29.35v1.54c0,2.44.45,4.12,1.37,5s2.61,1.37,5.09,1.37h4.51a11.14,11.14,0,0,0,4.44-.65,3.14,3.14,0,0,0,1.8-2.26,3.23,3.23,0,0,1,.73-1.41,1.92,1.92,0,0,1,1.44-.49,2.07,2.07,0,0,1,1.54.53,1.73,1.73,0,0,1,.36,1.56,7,7,0,0,1-3.09,5.1,13.26,13.26,0,0,1-7.22,1.66h-4.51q-5.37,0-7.93-2.55t-2.58-7.9V24.57q0-5.44,2.58-8t7.93-2.49h4.51q5.35,0,7.92,2.54c1.7,1.7,2.56,4.35,2.56,7.94v2.75a1.78,1.78,0,0,1-2,2Zm6.46-11.22c-2.48,0-4.17.41-5.09,1.32s-1.37,2.63-1.37,5.12v.74h17.4v-.74q0-3.72-1.36-5.08c-.91-.9-2.6-1.36-5.07-1.36Z"/><path d="M159.58,41.34c-3.57,0-6.22-.85-7.93-2.55s-2.57-4.34-2.57-7.9V24.57c0-3.61.85-6.27,2.57-8s4.36-2.54,7.93-2.52h4.51q5.37,0,7.92,2.56t2.56,7.92v6.27c0,3.57-.85,6.22-2.56,7.93s-4.34,2.57-7.92,2.57Zm-6.46-10.45q0,3.66,1.37,5t5.09,1.37h4.51q3.72,0,5.07-1.37t1.37-5.09V24.57q0-3.72-1.37-5.08c-.9-.9-2.59-1.36-5.07-1.36h-4.51a10.6,10.6,0,0,0-3.88.58,3.58,3.58,0,0,0-2,2,10.37,10.37,0,0,0-.59,3.88Z"/><path d="M214.55,14.06q4.95,0,7.1,2.4t2.14,7.89v15a2,2,0,0,1-4,0v-15c0-2.2-.4-3.79-1.21-4.77a4.9,4.9,0,0,0-4-1.47H212.3q-3.3,0-4.72,1.47c-.94,1-1.42,2.57-1.42,4.77v15a1.77,1.77,0,0,1-2,2,1.79,1.79,0,0,1-2-2v-15c0-2.2-.4-3.79-1.21-4.77a4.87,4.87,0,0,0-4-1.47h-2.25q-3.3,0-4.72,1.47t-1.41,4.77v15a2,2,0,0,1-4,0V16.1a2,2,0,0,1,4,0v1.57a8.34,8.34,0,0,1,3.09-2.77,9.5,9.5,0,0,1,4.2-.84h1.09a11.22,11.22,0,0,1,5.13,1,6.44,6.44,0,0,1,2.9,3.15A8.85,8.85,0,0,1,208,15a8.68,8.68,0,0,1,4.29-.95Z"/><path d="M237.24,29.35v1.54q0,3.66,1.37,5t5.09,1.37h4.51a11.14,11.14,0,0,0,4.44-.65,3.1,3.1,0,0,0,1.8-2.26,3.23,3.23,0,0,1,.73-1.41,1.94,1.94,0,0,1,1.45-.49,2.1,2.1,0,0,1,1.54.53,1.75,1.75,0,0,1,.35,1.56,7,7,0,0,1-3.09,5.1,13.23,13.23,0,0,1-7.22,1.66H243.7c-3.57,0-6.22-.85-7.93-2.55s-2.57-4.34-2.57-7.9V24.57c0-3.63.85-6.29,2.57-8s4.36-2.53,7.93-2.49h4.51q5.37,0,7.92,2.54t2.56,7.94v2.75a1.78,1.78,0,0,1-2,2Zm6.46-11.22q-3.7,0-5.09,1.32t-1.37,5.12v.74h17.41v-.74c0-2.48-.46-4.17-1.36-5.08s-2.6-1.36-5.08-1.36Z"/><path d="M278.9,41.34q-5.31,0-7.81-2.5t-2.5-7.78V18.13H265.7a1.79,1.79,0,0,1-2-2,1.78,1.78,0,0,1,2-2h2.89V9.44a2,2,0,1,1,4,0v4.65h6.52a1.78,1.78,0,0,1,2,2,1.78,1.78,0,0,1-2,2h-6.52V31.06q0,3.63,1.34,4.93c.88.88,2.53,1.31,4.93,1.31a2.14,2.14,0,0,1,1.51.48,2,2,0,0,1,.53,1.53A1.8,1.8,0,0,1,278.9,41.34Z"/><path d="M291.5,41.34a1.8,1.8,0,0,1-2-2V16.1a2,2,0,0,1,4,0V19a10.08,10.08,0,0,1,4.14-3.63,13.6,13.6,0,0,1,6-1.24,1.79,1.79,0,0,1,2,2,1.8,1.8,0,0,1-2,2c-3.21,0-5.66.64-7.37,1.91a6.72,6.72,0,0,0-2.75,5.22V39.31A1.78,1.78,0,0,1,291.5,41.34Z"/><path d="M313.33,9.42A2.11,2.11,0,0,1,311,7V5.51a2.08,2.08,0,0,1,2.36-2.36h1.49c1.52,0,2.28.78,2.28,2.36V7c0,1.61-.76,2.42-2.28,2.42Zm.74,31.92a1.79,1.79,0,0,1-2-2V16.1a2,2,0,0,1,4,0V39.31A1.78,1.78,0,0,1,314.07,41.34Z"/><path d="M336.51,41.34c-3.57,0-6.22-.85-7.93-2.57S326,34.41,326,30.84V24.51q0-5.35,2.54-7.92c1.7-1.7,4.35-2.54,8-2.5H341a12.33,12.33,0,0,1,6.36,1.38,6.08,6.08,0,0,1,2.86,4.23,1.65,1.65,0,0,1-.38,1.57,2.17,2.17,0,0,1-1.6.55,1.78,1.78,0,0,1-1.38-.48,4.74,4.74,0,0,1-.8-1.36,2.29,2.29,0,0,0-1.52-1.43,11.16,11.16,0,0,0-3.54-.42h-4.51c-2.45,0-4.14.4-5.07,1.31s-1.39,2.6-1.39,5.07v6.33q0,3.71,1.39,5.09t5.07,1.37H341a11.52,11.52,0,0,0,3.54-.41,2.31,2.31,0,0,0,1.52-1.46,4.42,4.42,0,0,1,.8-1.37,1.81,1.81,0,0,1,1.4-.47,2.14,2.14,0,0,1,1.58.56,1.68,1.68,0,0,1,.38,1.58A6.13,6.13,0,0,1,347.38,40,12.22,12.22,0,0,1,341,41.34Z"/><path d="M213.68,56.43q5.85,0,8.39,2.82t2.53,9.33V86.29a2.39,2.39,0,0,1-4.78,0V68.58c0-2.6-.47-4.48-1.43-5.64s-2.52-1.74-4.71-1.74H211q-3.9,0-5.58,1.74t-1.67,5.64V86.29a2.39,2.39,0,0,1-4.78,0V68.58q0-3.9-1.43-5.64t-4.71-1.74h-2.67c-2.6,0-4.45.58-5.57,1.74s-1.67,3-1.67,5.64V86.29a2.39,2.39,0,0,1-4.78,0V58.83a2.39,2.39,0,0,1,4.78,0v1.85a9.93,9.93,0,0,1,3.65-3.26,11.27,11.27,0,0,1,5-1h1.3a13.26,13.26,0,0,1,6.06,1.15,7.71,7.71,0,0,1,3.43,3.72A10.44,10.44,0,0,1,206,57.55,10.18,10.18,0,0,1,211,56.43Z"/><path d="M240.49,74.5v1.82q0,4.32,1.63,5.94c1.08,1.09,3.09,1.63,6,1.63h5.33a13.45,13.45,0,0,0,5.25-.76,3.73,3.73,0,0,0,2.13-2.69,3.68,3.68,0,0,1,.86-1.65,2.29,2.29,0,0,1,1.71-.59,2.42,2.42,0,0,1,1.82.64,2,2,0,0,1,.42,1.83,8.24,8.24,0,0,1-3.66,6c-2,1.31-4.87,2-8.53,2h-5.33q-6.33,0-9.38-3t-3-9.32V68.84q0-6.44,3-9.44t9.38-2.94h5.33q6.34,0,9.36,3t3,9.37v3.25a2.11,2.11,0,0,1-2.37,2.41Zm7.64-13.26c-2.92-.05-4.93.47-6,1.56s-1.63,3.1-1.63,6v.88h20.58v-.88q0-4.38-1.61-6c-1.08-1.08-3.07-1.61-6-1.61Z"/><path d="M287.39,88.67c-3.55,0-6.19-.86-7.9-2.57s-2.57-4.34-2.57-7.9.85-6.18,2.56-7.9,4.33-2.56,7.91-2.56h14.07c-.09-2.47-.69-4.17-1.82-5.11s-3-1.39-5.75-1.39h-3.77a17.44,17.44,0,0,0-5.25.58,3.52,3.52,0,0,0-2.29,2,4.13,4.13,0,0,1-1,1.64A2.41,2.41,0,0,1,280,66a2.54,2.54,0,0,1-1.87-.66,1.78,1.78,0,0,1-.41-1.78,7.64,7.64,0,0,1,3.84-5.37q3-1.71,8.61-1.71h3.77q6.33,0,9.36,3t3,9.36V86.26a2.39,2.39,0,1,1-4.78,0V84.21q-3.35,4.46-10.46,4.46Zm0-4.78H291a20.94,20.94,0,0,0,4.84-.52,8.56,8.56,0,0,0,3.71-1.82,6.1,6.1,0,0,0,1.91-3.64V72.55h-14.1c-2.23,0-3.74.39-4.52,1.17S281.7,76,281.7,78.2s.39,3.74,1.17,4.52S285.16,83.89,287.39,83.89Z"/><path d="M321.12,88.67a2.12,2.12,0,0,1-2.4-2.41V58.83a2.39,2.39,0,0,1,4.78,0v1.76q3.31-4.12,10.49-4.13h1.82q6.35,0,9.36,3t3,9.36V86.26a2.39,2.39,0,1,1-4.78,0V68.84q0-4.38-1.64-6c-1.1-1.08-3.08-1.61-6-1.61H334a19.93,19.93,0,0,0-7.18,1.12q-2.9,1.13-3.31,3.52V86.26A2.12,2.12,0,0,1,321.12,88.67Z"/></g></svg>