<svg xmlns="http://www.w3.org/2000/svg" viewBox="0 0 400 100"><defs><style>.cls-1,.cls-3,.cls-4{fill:none;stroke-linecap:round;stroke-linejoin:round;stroke-width:6px;}.cls-1{stroke:#1d1d1b;}.cls-2{fill:#0000b4;}.cls-3,.cls-4{stroke:#0000b4;}.cls-4{stroke-dasharray:18.17 18.17;}</style></defs><g id="mean"><polyline class="cls-1" points="175.48 92.88 150.47 38.47 125.18 89.37 100.02 14.34 75.45 90.25"/><circle class="cls-2" cx="150.47" cy="38.47" r="7.51"/><circle class="cls-2" cx="100.02" cy="14.34" r="7.51"/><line class="cls-3" x1="178.61" y1="71.16" x2="170.61" y2="71.14"/><line class="cls-4" x1="152.44" y1="71.11" x2="88.83" y2="70.98"/><line class="cls-3" x1="79.75" y1="70.96" x2="71.75" y2="70.94"/><path d="M200.66,78.71v1.82q0,4.32,1.62,6c1.09,1.08,3.09,1.62,6,1.62h5.33a13.36,13.36,0,0,0,5.24-.76A3.69,3.69,0,0,0,221,84.66a3.88,3.88,0,0,1,.86-1.66,2.29,2.29,0,0,1,1.71-.59,2.4,2.4,0,0,1,1.82.64,2,2,0,0,1,.42,1.83,8.26,8.26,0,0,1-3.65,6q-3,2-8.53,2H208.3q-6.35,0-9.38-3t-3-9.33V73.05q0-6.43,3-9.44t9.38-2.94h5.33q6.33,0,9.36,3t3,9.37V76.3a2.11,2.11,0,0,1-2.37,2.41Zm7.64-13.26c-2.93,0-4.93.48-6,1.56s-1.62,3.1-1.62,6v.88h20.57v-.88q0-4.38-1.61-6t-6-1.61Z"/><path d="M247.55,92.88q-5.33,0-7.89-2.57t-2.57-7.9q0-5.32,2.55-7.89T247.55,72h14.08q-.13-3.7-1.82-5.1t-5.76-1.4h-3.77A17.32,17.32,0,0,0,245,66a3.56,3.56,0,0,0-2.3,2,4.13,4.13,0,0,1-1,1.64,2.38,2.38,0,0,1-1.64.47,2.56,2.56,0,0,1-1.87-.66,1.77,1.77,0,0,1-.4-1.77,7.65,7.65,0,0,1,3.83-5.38q3.06-1.71,8.61-1.71h3.77q6.34,0,9.36,3t3,9.36V90.47a2.39,2.39,0,1,1-4.78,0v-2q-3.35,4.45-10.47,4.45Zm0-4.78h3.64a21,21,0,0,0,4.85-.52,8.47,8.47,0,0,0,3.7-1.82,6,6,0,0,0,1.92-3.64V76.76H247.55c-2.23,0-3.73.39-4.51,1.17s-1.17,2.27-1.17,4.48.39,3.74,1.17,4.52S245.32,88.1,247.55,88.1Z"/><path d="M281.29,92.88a2.13,2.13,0,0,1-2.41-2.41V63a2.39,2.39,0,0,1,4.78,0V64.8q3.31-4.12,10.5-4.13H296c4.22,0,7.35,1,9.36,3s3,5.14,3,9.36V90.47a2.39,2.39,0,1,1-4.78,0V73.05c0-2.92-.54-4.92-1.64-6s-3.08-1.61-6-1.61h-1.82A19.93,19.93,0,0,0,287,66.57c-1.93.75-3,1.92-3.32,3.53V90.47A2.11,2.11,0,0,1,281.29,92.88Z"/></g></svg>