<svg xmlns="http://www.w3.org/2000/svg" viewBox="0 0 400 100"><defs><style>.cls-1,.cls-2{fill:none;stroke-linecap:round;stroke-miterlimit:10;stroke-width:6px;}.cls-1{stroke:#000;}.cls-2{stroke:#0000b4;}</style></defs><g id="median"><path class="cls-1" d="M58.57,88.16S78.39,54.51,84.83,32.53C88.45,20.17,91,12.66,100.15,11.88s12.32,10.77,14,16.77S125.57,79.94,142,88.16"/><path class="cls-2" d="M99.37,88.16S114,71.83,117.47,55.29,127.9,37,132.35,42.41s15.1,41.64,25,45.75"/><path d="M173.32,74v1.82q0,4.32,1.63,5.94c1.08,1.09,3.09,1.63,6,1.63h5.33a13.41,13.41,0,0,0,5.25-.77,3.72,3.72,0,0,0,2.13-2.68,3.68,3.68,0,0,1,.86-1.65,2.28,2.28,0,0,1,1.7-.59,2.42,2.42,0,0,1,1.82.63,2,2,0,0,1,.43,1.84,8.24,8.24,0,0,1-3.66,6q-3,2-8.53,2H181q-6.35,0-9.38-3t-3-9.32V68.33q0-6.43,3-9.44c2-2,5.15-3,9.38-2.94h5.33q6.33,0,9.36,3t3,9.38v3.25A2.12,2.12,0,0,1,196.3,74ZM181,60.73c-2.92,0-4.93.47-6,1.56s-1.63,3.09-1.63,6v.88h20.57v-.88q0-4.38-1.6-6t-6-1.6Z"/><path d="M221.49,88.16q-6.35,0-9.38-3t-3-9.38V68.33q0-6.33,3-9.36t9.38-3h12.93V45a2.39,2.39,0,1,1,4.78,0V85.75a2.39,2.39,0,1,1-4.78,0v-1.2a9.44,9.44,0,0,1-4,2.68,18.89,18.89,0,0,1-6.43.93Zm0-4.78H224a19,19,0,0,0,7.5-1.27q3-1.26,3-3.87V60.73H221.49c-2.93,0-4.93.54-6,1.64s-1.62,3.08-1.62,6v7.41q0,4.4,1.64,6T221.49,83.38Z"/><path d="M253.17,50.42c-1.86,0-2.79-1-2.79-2.86V45.81a2.47,2.47,0,0,1,2.79-2.8h1.76c1.8,0,2.7.93,2.7,2.8v1.75c0,1.91-.9,2.86-2.7,2.86Zm.88,37.74a2.13,2.13,0,0,1-2.4-2.41V58.32a2.39,2.39,0,0,1,4.77,0V85.75A2.12,2.12,0,0,1,254.05,88.16Z"/><path d="M279.3,88.16q-5.32,0-7.89-2.57c-1.72-1.71-2.57-4.35-2.57-7.9s.85-6.18,2.55-7.9,4.34-2.56,7.91-2.56h14.07q-.12-3.7-1.82-5.11t-5.75-1.39H282a17.44,17.44,0,0,0-5.25.58,3.54,3.54,0,0,0-2.29,2,4.13,4.13,0,0,1-1,1.64,2.45,2.45,0,0,1-1.64.47A2.52,2.52,0,0,1,270,64.8a1.78,1.78,0,0,1-.41-1.77,7.71,7.71,0,0,1,3.84-5.38Q276.48,56,282,56h3.77q6.34,0,9.36,3t3,9.36V85.75a2.39,2.39,0,1,1-4.78,0v-2q-3.35,4.45-10.47,4.46Zm0-4.78h3.64a21,21,0,0,0,4.85-.52,8.64,8.64,0,0,0,3.7-1.82,6.05,6.05,0,0,0,1.92-3.64V72H279.3c-2.23,0-3.73.39-4.51,1.17s-1.17,2.27-1.17,4.48.38,3.74,1.17,4.52S277.07,83.38,279.3,83.38Z"/><path d="M313,88.16a2.13,2.13,0,0,1-2.41-2.41V58.32a2.39,2.39,0,0,1,4.78,0v1.76q3.31-4.14,10.5-4.13h1.82q6.33,0,9.36,3t3,9.36V85.75a2.39,2.39,0,1,1-4.78,0V68.33c0-2.92-.54-4.92-1.64-6s-3.08-1.6-6-1.6h-1.82a20,20,0,0,0-7.19,1.12,4.67,4.67,0,0,0-3.31,3.52V85.75A2.12,2.12,0,0,1,313,88.16Z"/></g></svg>