<svg id="mode" xmlns="http://www.w3.org/2000/svg" viewBox="0 0 400 100"><defs><style>.cls-1,.cls-2{fill:none;stroke-linecap:round;stroke-linejoin:round;stroke-width:6px;}.cls-1{stroke:#000;}.cls-2{stroke:#0000b4;}</style></defs><rect class="cls-1" x="103.19" y="8.9" width="15.05" height="81.9" transform="translate(221.43 99.7) rotate(-180)"/><rect class="cls-2" x="124.66" y="44.65" width="15.27" height="46.26" transform="translate(264.6 135.56) rotate(-180)"/><rect class="cls-1" x="146.36" y="26.39" width="15.72" height="64.42" transform="translate(308.43 117.19) rotate(-180)"/><path d="M185.05,92.68q-6.33,0-9.38-3t-3-9.33V72.85q0-6.39,3-9.4t9.38-3h5.33q6.35,0,9.36,3t3,9.35v7.41q0,6.34-3,9.38t-9.36,3Zm-7.64-12.35q0,4.32,1.63,6c1.08,1.08,3.09,1.62,6,1.62h5.33c2.93,0,4.92-.54,6-1.62s1.61-3.09,1.61-6V72.85q0-4.38-1.61-6c-1.08-1.07-3.07-1.61-6-1.61h-5.33a12.45,12.45,0,0,0-4.58.68,4.24,4.24,0,0,0-2.36,2.34,12.23,12.23,0,0,0-.7,4.58Z"/><path d="M225.58,92.68q-6.35,0-9.38-3t-3-9.38V72.85q0-6.33,3-9.35t9.38-3h12.93V49.55a2.39,2.39,0,1,1,4.78,0V90.27a2.39,2.39,0,1,1-4.78,0v-1.2a9.35,9.35,0,0,1-4,2.68,18.89,18.89,0,0,1-6.43.93Zm0-4.78h2.47a19,19,0,0,0,7.5-1.27c2-.84,3-2.13,3-3.86V65.25H225.58c-2.93,0-4.93.55-6,1.64s-1.62,3.08-1.62,6v7.41c0,2.93.55,4.93,1.64,6S222.67,87.9,225.58,87.9Z"/><path d="M259.18,78.51v1.82q0,4.32,1.63,6t6,1.62h5.33a13.45,13.45,0,0,0,5.25-.76,3.74,3.74,0,0,0,2.13-2.68,3.67,3.67,0,0,1,.86-1.66,2.26,2.26,0,0,1,1.7-.59,2.43,2.43,0,0,1,1.82.64,2,2,0,0,1,.43,1.83,8.27,8.27,0,0,1-3.66,6q-3,2-8.53,2h-5.33q-6.35,0-9.38-3t-3-9.33V72.85q0-6.43,3-9.44t9.38-2.94h5.33q6.33,0,9.36,3t3,9.37V76.1a2.11,2.11,0,0,1-2.37,2.41Zm7.64-13.26q-4.4-.06-6,1.56c-1.09,1.08-1.63,3.1-1.63,6v.88h20.57v-.88q0-4.38-1.6-6t-6-1.61Z"/></svg>