<svg xmlns="http://www.w3.org/2000/svg" viewBox="0 0 485.13 465.01"><defs><style>.cls-1,.cls-5,.cls-6{fill:none;}.cls-1,.cls-2,.cls-3,.cls-4,.cls-5,.cls-6{stroke:#000;stroke-width:8px;}.cls-1,.cls-2,.cls-4,.cls-5,.cls-6{stroke-linecap:round;}.cls-1,.cls-2,.cls-4{stroke-linejoin:round;}.cls-2{fill:#fff;}.cls-3,.cls-4{fill:#0000b4;}.cls-3,.cls-5,.cls-6{stroke-miterlimit:10;}.cls-6{stroke-dasharray:15.58 15.58;}</style></defs><g id="Capa_2" data-name="Capa 2"><g id="logoWite"><line class="cls-1" x1="325.93" y1="4" x2="409.54" y2="4"/><path class="cls-2" d="M80.28,375.35c-30.5-38.1-46.53-83.63-46.53-136.23,0-122.95,99.67-222.62,222.62-222.62V239.12H481.13c0,62.52-30.1,114.45-71.59,154.89l-46.66-63L265.75,461l-97.64-88.16L82.49,456.44v-80.2Z"/><polyline class="cls-3" points="82.49 452.83 82.49 101.13 169.78 101.13 169.78 374.36"/><polyline class="cls-4" points="290.27 239.13 290.27 426.93 265.75 461.01 205.44 405.01 205.44 197.42 256.37 197.42 256.37 239.13 290.27 239.13"/><polygon class="cls-4" points="409.54 394.01 409.54 4 325.93 4 325.93 380.49 362.88 331.05 409.54 394.01"/><line class="cls-2" x1="82.49" y1="456.44" x2="168.11" y2="372.85"/><path class="cls-5" d="M402.53,162.32a16.14,16.14,0,0,0-7.8,1.4"/><path class="cls-6" d="M381.72,172.18c-6.21,5.33-13.28,13.06-21,23.74C341.88,222,314,300.86,249.36,301.21s-78.55-84.6-130.24-81.88-85,78.54-85,78.54l-22.68,42.7"/><line class="cls-5" x1="7.75" y1="347.46" x2="4" y2="354.52"/></g></g></svg>