<svg xmlns="http://www.w3.org/2000/svg" viewBox="0 0 455.38 465.01"><defs><style>.cls-1,.cls-3{fill:#0000b4;}.cls-1,.cls-2,.cls-3,.cls-4,.cls-5,.cls-6{stroke:#fff;stroke-width:8px;}.cls-1,.cls-5,.cls-6{stroke-miterlimit:10;}.cls-2,.cls-4,.cls-5,.cls-6{fill:none;}.cls-2,.cls-3,.cls-5,.cls-6{stroke-linecap:round;}.cls-2,.cls-3,.cls-4{stroke-linejoin:round;}.cls-4{stroke-linecap:square;}.cls-6{stroke-dasharray:15.95 15.95;}</style></defs><g id="Capa_2" data-name="Capa 2"><g id="logo"><polyline class="cls-1" points="52.73 452.83 52.73 101.13 140.03 101.13 140.03 374.36"/><polyline class="cls-2" points="52.73 456.44 138.36 372.85 236 461.01 333.13 331.05 379.79 394.01"/><line class="cls-2" x1="296.18" y1="4" x2="379.79" y2="4"/><polyline class="cls-3" points="260.52 239.13 260.52 426.93 236 461.01 175.69 405.01 175.69 197.42 226.62 197.42 226.62 239.13 260.52 239.13"/><line class="cls-2" x1="449.25" y1="239.12" x2="226.62" y2="239.12"/><polygon class="cls-3" points="379.79 394.01 379.79 4 296.18 4 296.18 380.49 333.13 331.05 379.79 394.01"/><path class="cls-4" d="M50.53,375.35C20,337.25,4,291.72,4,239.12,4,116.17,103.67,16.5,226.62,16.5"/><path class="cls-2" d="M451.38,239.12c0,62.52-30.1,114.45-71.59,154.89"/><line class="cls-2" x1="226.62" y1="239.12" x2="226.62" y2="16.5"/><path class="cls-5" d="M17.21,286.27s1.18-2.77,3.52-7.18"/><path class="cls-6" d="M28.9,265.4c12.65-19,35.4-44.39,67.48-46.07,51.69-2.72,65.57,82.23,130.24,81.88S319.14,222,338,195.92c8.95-12.4,15.21-20.72,20.18-25.95"/><path class="cls-5" d="M364.15,164.73a11,11,0,0,1,7.55-2"/></g></g></svg>