<svg xmlns="http://www.w3.org/2000/svg" viewBox="0 0 500 500"><defs><style>.cls-1{fill:#0b6700;}.cls-1,.cls-2,.cls-3,.cls-4,.cls-5{stroke:#000;}.cls-1,.cls-6,.cls-7{stroke-miterlimit:10;}.cls-1,.cls-2,.cls-3,.cls-4,.cls-5,.cls-6,.cls-7{stroke-width:8px;}.cls-2,.cls-5,.cls-6,.cls-7{fill:none;}.cls-2,.cls-3,.cls-4,.cls-6,.cls-7{stroke-linecap:round;}.cls-2,.cls-3,.cls-4,.cls-5{stroke-linejoin:round;}.cls-3{fill:#fff;}.cls-4{fill:#852000;}.cls-5{stroke-linecap:square;}.cls-6,.cls-7{stroke:#0000b4;}.cls-7{stroke-dasharray:15.52 15.52;}</style></defs><g id="logo"><polyline class="cls-1" points="79.63 467.99 79.63 116.29 166.93 116.29 166.93 389.52"/><polyline class="cls-2" points="79.63 471.59 165.25 388.01 262.9 476.17 360.02 346.21 406.68 409.17"/><line class="cls-2" x1="323.07" y1="19.16" x2="406.68" y2="19.16"/><polyline class="cls-3" points="287.42 254.28 287.42 442.08 262.9 476.17 202.58 420.17 202.58 212.57 253.52 212.57 253.52 254.28 287.42 254.28"/><line class="cls-2" x1="476.14" y1="254.28" x2="253.52" y2="254.28"/><polygon class="cls-4" points="406.68 409.17 406.68 19.16 323.07 19.16 323.07 395.65 360.02 346.21 406.68 409.17"/><path class="cls-5" d="M77.42,390.5c-30.49-38.09-46.53-83.63-46.53-136.22,0-122.95,99.68-222.62,222.63-222.62"/><path class="cls-2" d="M478.27,254.28c0,62.52-30.09,114.45-71.59,154.89"/><line class="cls-2" x1="253.52" y1="254.28" x2="253.52" y2="31.66"/><path class="cls-6" d="M38.25,313s1.2-2.73,3.5-7.18"/><path class="cls-7" d="M49.38,292.32c13.86-22.67,39.91-56.06,73.9-57.84,51.69-2.71,65.56,82.24,130.24,81.89S346,237.2,364.88,211.08c10.41-14.43,19.66-23.46,27.19-28.5"/><path class="cls-6" d="M398.89,178.88a16.15,16.15,0,0,1,7.79-1.41"/></g></svg>