<svg xmlns="http://www.w3.org/2000/svg" viewBox="0 0 430 430">
  <defs>
    <style>
      .cls-1 {
        isolation: isolate;
      }

      .cls-2, .cls-3 {
        fill: #ffc738;
      }

      .cls-3 {
        mix-blend-mode: multiply;
        opacity: 0.5;
      }

      .cls-4 {
        fill: #b26836;
      }
    </style>
  </defs>
  <g class="cls-1">
    <g id="Warstwa_1" data-name="Warstwa 1">
      <g>
        <path class="cls-2" d="M375.12,215A160.22,160.22,0,1,1,215,54.88,159.34,159.34,0,0,1,375.12,215Z"/>
        <path class="cls-3" d="M375.12,215A160.22,160.22,0,1,1,215,54.88,159.34,159.34,0,0,1,375.12,215Z"/>
        <path class="cls-2" d="M353.45,295.48a160.76,160.76,0,0,1-75.51,66.8l-28.49-32.22L105,166.72l-28.47-32.2a160.76,160.76,0,0,1,75.51-66.8l28.49,32.22L325,263.28Z"/>
        <path class="cls-4" d="M215,338.59A123.59,123.59,0,1,1,338.59,215,123.73,123.73,0,0,1,215,338.59Zm0-240.18A116.59,116.59,0,1,0,331.59,215,116.72,116.72,0,0,0,215,98.41Z"/>
      </g>
    </g>
  </g>
</svg>
